<svg xmlns="http://www.w3.org/2000/svg" width="34.973" height="34.966" viewBox="0 0 34.973 34.966"><path d="M17.485,10.756a8.965,8.965,0,1,0,8.965,8.965A8.951,8.951,0,0,0,17.485,10.756Zm0,14.793a5.828,5.828,0,1,1,5.828-5.828A5.839,5.839,0,0,1,17.485,25.549Zm11.422-15.16A2.091,2.091,0,1,1,26.817,8.3,2.086,2.086,0,0,1,28.908,10.389Zm5.937,2.122c-.133-2.8-.772-5.282-2.824-7.326S27.5,2.5,24.695,2.361c-2.887-.164-11.539-.164-14.426,0-2.793.133-5.274.772-7.326,2.817S.258,9.7.118,12.5c-.164,2.887-.164,11.539,0,14.426.133,2.8.772,5.282,2.824,7.326s4.525,2.684,7.326,2.824c2.887.164,11.539.164,14.426,0,2.8-.133,5.282-.772,7.326-2.824s2.684-4.525,2.824-7.326c.164-2.887.164-11.532,0-14.418ZM31.116,30.027a5.9,5.9,0,0,1-3.324,3.324c-2.3.913-7.763.7-10.307.7s-8.013.2-10.307-.7a5.9,5.9,0,0,1-3.324-3.324c-.913-2.3-.7-7.763-.7-10.307s-.2-8.013.7-10.307A5.9,5.9,0,0,1,7.179,6.09c2.3-.913,7.763-.7,10.307-.7s8.013-.2,10.307.7a5.9,5.9,0,0,1,3.324,3.324c.913,2.3.7,7.763.7,10.307S32.029,27.733,31.116,30.027Z" transform="translate(0.005 -2.238)"/></svg>