<svg id="Layer_1" data-name="Layer 1" xmlns="http://www.w3.org/2000/svg" width="1366" height="768" viewBox="0 0 1366 768">
  <path d="M712.43,95.43c1.21.33,2.45.55,3.63,1,13.42,4.94,27.22,8.32,41.48,7.39,9.79-.65,19.55-2.58,29.19-4.65a95,95,0,0,1,47.83,1.58c20.27,6,40.35,4.32,59.86-4.07,1.15-.49,2.33-.88,3.58-1.35.12.81.24,1.16.17,1.21-10.25,7-15.77,17.67-20.42,28.87-9.65,23.21-16.79,47.35-23.59,71.55-17,60.48-33.55,121.07-50.29,181.62a9.61,9.61,0,0,0-.23,1c-.36,2-1.31,4.49,1.33,5.38,2.8,1,4.39-1.07,5.15-3.6,1.75-5.89,3.24-11.87,5.07-17.73,7.21-23,14.34-46.1,21.9-69,1.8-5.45,4.91-10.5,7.85-15.45,5.23-8.79,13.35-10.69,22.5-8.95,8.58,1.63,13.15,7.68,14.74,16.17a69.36,69.36,0,0,1,1.09,12.8,507.68,507.68,0,0,1-6.65,78.28c-4.47,28.22-9.7,56.32-14.69,84.46a3.55,3.55,0,0,0,1.58,4.1c14.79,11.06,21.62,26.65,23.71,44.94,1.42,12.43,1.67,24.85-.76,37.17-1.63,8.22-4.54,15.81-11.42,21.11a30.63,30.63,0,0,1-15,6,76.07,76.07,0,0,1-33.42-2.48c-13.64-4.32-21.25-14.23-24.21-28.39-2.38-11.38-1.74-22.81-.36-34.2,4.23-35,15.41-68.07,26.72-101.09,9.53-27.8,19-55.64,28-83.61a128.56,128.56,0,0,0,6.24-35c.07-2,.29-4.09-.29-5.89s-1.78-4.13-3.24-4.66a6,6,0,0,0-5.38,1.46A49.17,49.17,0,0,0,847,292.12c-7.27,15.88-11.84,32.77-16.56,49.58-3.51,12.47-6.78,25-10.32,37.48a38.17,38.17,0,0,1-3.67,8.73,13.67,13.67,0,0,1-14.92,6.32c-5.5-1.25-8.46-5.88-7.12-12,1.59-7.19,3.65-14.26,5.47-21.39a836.32,836.32,0,0,0,19-101.06c3.12-24.77,5.87-49.63,7.76-74.53,1.57-20.77,1.31-41.67-3.32-62.15a58,58,0,0,0-5.31-14.4c-4.4-8.22-13.91-8.89-20-1.82-4.94,5.71-6.84,12.88-8.38,20.09-5.21,24.32-6.75,49.11-6.88,73.89q-.69,130.1-.31,260.22c.11,24.19,2.2,48.41,4.19,72.54.75,9.11,3.5,18.09,5.82,27a26.1,26.1,0,0,0,9.6,14.06,3.89,3.89,0,0,1,1.38,2c-14.84-5.09-29.86-8.45-45.52-8.44a123.55,123.55,0,0,0-45.45,9l-.36-1.12a63.3,63.3,0,0,0,4.78-4.48c4.77-5.46,7.21-12.14,8.91-19.15a218.29,218.29,0,0,0,5.65-44.8c1.08-33.92,2.12-67.86,2.25-101.79.25-64.47,0-128.95-.37-193.43-.15-25.12-1-50.25-4.38-75.18a180.33,180.33,0,0,0-4.32-21.63c-2-7.83-5.8-14.78-12.74-19.46Zm147.38,376c-3.69,20.37-7.44,40.32-10.85,60.33-1.4,8.23-2.19,16.6-.66,25,.86,4.68,3.42,7.67,8,8.79A14.84,14.84,0,0,0,873,558.9a31.45,31.45,0,0,0,3.92-9.31,110.59,110.59,0,0,0-1.4-54.87A43.61,43.61,0,0,0,859.81,471.47Z"/>
  <path d="M571.73,577.41c-25.27-11.12-50.34-13-75.42,0l-.22-.95c.14-.32.2-.77.44-1,10.52-7.88,14.84-19.55,17.8-31.9a281.47,281.47,0,0,0,7.55-62.51c.88-77.15,1.34-154.3,1.81-231.45.24-39.57.14-79.14.25-118.71,0-7.91,1-15.66,5.45-22.4,4.75-7.14,11.75-10.2,19.73-11.3,11.43-1.58,22.74-1.35,33.43,3.74,12.5,6,19.32,17,22.08,30.24,2.42,11.68,3.62,23.69,4.61,35.62,2.14,25.79,3.81,51.63,5.65,77.45q2.7,37.75,5.36,75.5t5.46,75.48q2.38,33.14,4.71,66.27c1.92,26.7,3.77,53.41,5.86,80.09A49.4,49.4,0,0,0,639,553.45c1.45,4.25,4.44,7,9.1,7a9,9,0,0,0,9.07-6.5,33.32,33.32,0,0,0,2-11.56c-1.3-33.14-2.89-66.28-4.37-99.41q-1.73-38.31-3.39-76.63c-1.85-40.84-3.49-81.7-5.68-122.52-1.25-23.42-3.15-46.82-5.26-70.18-1.54-17.1-3.91-34.16-9-50.58-2-6.53-5.21-12.74-8.41-18.78-1.73-3.28-4.62-5.9-6.7-8.46a12.34,12.34,0,0,1,2,.46c6.35,2.13,12.55,5,19,6.33,14.81,3,29.39,1.11,43.57-4.13,3-1.12,6.1-2.15,9.16-3.22l.56.93a20.64,20.64,0,0,1-2.06,1.92c-6.14,4.47-10.08,10.57-12.61,17.82-5.44,15.59-7.46,31.85-8.69,48.23-3.5,46.78-2.17,93.63-1.67,140.47q1,91.75,2.27,183.51c.23,18.41.54,36.81.59,55.22,0,9.08-2.18,17.47-9,23.91-4.82,4.57-10.75,6.54-17,7.62a80,80,0,0,1-27.61-.12c-12.85-2.27-19.95-11.31-24.12-23.32-4.56-13.16-6.53-26.93-7.63-40.75-3.23-40.85-6.13-81.73-9.11-122.6q-4.83-66.42-9.58-132.85c-2.33-32.3-4.52-64.62-7.06-96.9-1-12.38-1.61-24.87-5.13-36.88-1.62-5.54-3.94-7.47-8.72-7.43-4.25,0-7.19,2.44-8.43,7.52a37.84,37.84,0,0,0-1.07,9.12c.14,10.91.49,21.81.8,32.72q1.47,51.72,3,103.45c1.41,49.25,2.68,98.5,4.29,147.74q1.21,37.33,3.45,74.62c1.24,20.23,3.22,40.41,8.4,60.07,2.75,10.47,7.54,19.63,16.59,25.79a5.17,5.17,0,0,1,.9.91A8.4,8.4,0,0,1,571.73,577.41Z"/>
  <path d="M1066,97.35c-.36,1-.65,2-1.08,3-8,18.16-11.8,37.41-13.83,57.09-3.5,33.74-2,67.59-1.57,101.41.14,11.89,1,23.77,1.59,35.65,0,1,0,1.93,0,3.07h-3.83c-.83-7.13-1.42-14.25-2.52-21.29-4.33-27.81-8.49-55.66-13.34-83.38a396.85,396.85,0,0,0-16.72-65.36c-2.58-7.24-5.54-14.35-11.7-19.32-7.41-6-17.31-3.36-20.71,5.58-3.24,8.52-4.23,17.55-4.51,26.56-1,30.4-1.9,60.8-2.33,91.21-.42,29.64-.2,59.29-.27,88.94v3.7c10.23-2.84,17.82-8.43,21.91-18.53,4.39-10.86,6.56-22.31,8-33.9,3.11-24.34,6.07-48.71,9.11-73.07.09-.75.3-1.49.49-2.4h3.58c-5,90.71-6.14,181.3.06,272.09h-3.82c-.8-7.52-1.52-15-2.41-22.37-3.35-28-5.27-56.14-11.5-83.66a80.33,80.33,0,0,0-5.8-16.35c-3.87-8.23-10.87-12.62-19.5-15.15-.06,1.37-.16,2.52-.15,3.66.2,53.46.26,106.91.71,160.37.16,19,.6,38.13,4.4,56.9a46.5,46.5,0,0,0,1.92,6.63c4.16,11.46,16.08,10.9,21.18,3.23a81.21,81.21,0,0,0,9.19-18c8.95-25.61,14.85-52.12,20.6-78.66,8.06-37.21,13.89-74.8,18.44-112.62.06-.54.17-1.06.29-1.78h4c-.65,8.89-1.34,17.64-1.92,26.39-2.94,43.89-4.82,87.83-2.76,131.81.9,19.25,3,38.43,8.89,56.91,1.08,3.41,2.32,6.76,3.77,10.93a18.43,18.43,0,0,1-2.73-1.3,27.46,27.46,0,0,0-21.72-5.37c-9.54,1.49-19,3.3-28.61,4.61-9.81,1.35-19.67,1.94-29.51.09-15.17-2.84-26-12-33.59-25.47-9-15.86-13.72-33.34-17.2-51.23-5.12-26.3-7.45-52.93-9-79.67-2.36-40.62-2.64-81.28-1.86-122,.71-37.15,2.47-74.23,8.34-110.95,3.25-20.35,7.48-40.48,17-58.9,5.63-10.87,12.84-20.23,24-25.55a46.92,46.92,0,0,1,24.57-4.33c11.6,1,23.14,2.91,34.71,4.45,5.37.71,10.71,1.7,16.1,2.16a26.25,26.25,0,0,0,18.06-5.15,28.07,28.07,0,0,1,2.77-1.6Z"/>
  <path d="M234.64,336.52c10-2.79,17.21-8.41,21.2-18.2,4.59-11.29,6.58-23.21,8.1-35.23,3.11-24.68,6.05-49.38,9.09-74.29h4.15c-5.39,90.7-6.72,181.28,0,272.07h-4.27c-.64-6-1.24-12.07-2-18.15-3.16-26.44-6.12-52.92-9.67-79.3-1.35-10-3.77-19.93-9.44-28.52-4.1-6.21-10-9.59-17.31-11.91v3.77c.06,36.38,0,72.75.23,109.12.19,26.35,1.07,52.69,4.47,78.82,1.14,8.79,3.51,17.43,5.79,26a25.85,25.85,0,0,0,9.62,14A4,4,0,0,1,256,576.8c-30.45-11.5-60.79-11.53-91.74.77.58-1.37.64-1.84.88-2,7.27-5.24,11.05-13,12.62-21.5,2.43-13.16,4.56-26.45,5.7-39.78,3-35.39,2.74-70.91,2.77-106.4.05-58.08.26-116.18-.26-174.26-.25-28.19-1.72-56.38-3.21-84.54-.49-9.4-2.42-18.76-4.24-28-1.93-9.75-5.53-18.75-14-24.71l.26-.78a25.73,25.73,0,0,1,3.51.74,124.18,124.18,0,0,0,31.28,7.27c10.3.94,20.51.5,30.25-2.87,15.52-5.37,30.94-4.22,46.53-1,5.82,1.21,11.69,2.21,17.55,3.23,10.16,1.76,20,1.59,28.94-7-.17,2,0,3-.36,3.82-8.23,19.64-10.62,40.54-11.91,61.56-2.41,39.32-1.32,78.68-.34,118,.69,27.53,2.3,55,3.52,82.56.16,3.49.45,7,.68,10.62h-3.93c-1.26-10.5-2.42-20.87-3.78-31.22-2.86-21.71-5.42-43.48-8.85-65.09q-8.2-51.81-17.45-103.44c-3-16.76-6.23-33.59-13.12-49.22a49.56,49.56,0,0,0-8.92-13.86c-7.77-8.25-19.27-4.63-21.62,6.57a84.77,84.77,0,0,0-2.07,17q-.26,100.36-.18,200.72C234.53,334.65,234.58,335.31,234.64,336.52Z"/>
  <path d="M344.18,95.35c1.38.38,2.78.7,4.13,1.16,12.57,4.26,25.37,8,38.64,7.26,9.89-.57,19.7-2.92,29.51-4.7,8.79-1.61,17.55-3.59,26.49-1.58a55.06,55.06,0,0,1,10,3.27c9.54,4.22,19,3.87,28.54.18,4.64-1.8,9.21-3.77,14.49-5.94a11.87,11.87,0,0,1-.92,2.53c-8.4,11.16-12.2,24.36-15.3,37.77-5.81,25.13-8.43,50.76-10.36,76.47-4.46,59.22-3.77,118.51-1.62,177.78,1.5,41.18,4.11,82.32,5.85,123.49a198.23,198.23,0,0,1-1,31.3c-2.19,18.67-12.27,28.82-30.21,31.13-13.55,1.75-27.11,1.61-40.52-1.78-21.49-5.43-34.12-20.86-34.44-43.88-.22-15.74.74-31.5,1.44-47.23,1-23.45,2.78-46.87,3.4-70.33,1-37.45,2-74.93,1.68-112.39-.22-31.49-1.73-63-3.61-94.45a431.81,431.81,0,0,0-10-72.19c-2.35-10.06-4.88-20.12-10.25-29A94.66,94.66,0,0,0,344,96Zm72.9,255.41h-.63q-1.06,93.22-2.08,186.44a76.29,76.29,0,0,0,1,12.16c1.24,8.29,6.15,13.67,13.56,15.09a44.06,44.06,0,0,0,20.5-1.36c6.32-1.8,10.53-6.27,13-12.6,2.66-6.82,3.15-14,2.75-21.12-1.92-34.09-4.18-68.16-6-102.25-2.2-40.7-4.54-81.39-6-122.12-1.62-44.26-2.05-88.57-3.58-132.83-.63-18-2.62-36-4.37-53.95a36,36,0,0,0-3.68-11.83c-2.17-4.47-7-5-10.35-1.37a25.42,25.42,0,0,0-4.28,7.24c-4,9.66-5.18,20-5.78,30.32q-1.49,25.07-1.9,50.19C418.34,245.42,417.75,298.09,417.08,350.76Z"/>
  <path d="M1238,577a13.82,13.82,0,0,1-2.75-1.21c-9.26-8.19-19.75-8.25-31-5.74-10.45,2.34-21,4.53-31.65,5.45a49,49,0,0,1-19.4-2.5c-20.26-6.82-40-4.81-59.66,2.13-1.9.67-3.85,1.19-5.78,1.75-.15,0-.37-.14-.65-.26,0-.28,0-.74.11-.85,8.34-5.93,12.06-14.88,13.55-24.58,2.42-15.75,4.65-31.59,5.74-47.47,2.94-42.92,2-85.93,2-128.92,0-53.9,0-107.8-.33-161.7-.17-26-1-52-4.86-77.79a197,197,0,0,0-6.21-25.86c-1.64-5.56-5.58-9.75-10-13.45,9.94,2.36,19.77,5.64,29.83,6.8a137.05,137.05,0,0,0,31.1.06c10.16-1.17,20.09-4.48,30.11-6.85,0,0,.12.39,0,.45-8.62,6.44-11.92,16-14.12,26.14-3.83,17.6-5.32,35.54-5.66,53.47q-1.34,70.08-1.63,140.18c-.25,68.89-.1,137.79,0,206.68,0,9.69.45,19.39,1,29.06a31.5,31.5,0,0,0,2.19,9.57c2.57,6.41,9.56,7.48,14.25,2.45a35.46,35.46,0,0,0,8.08-15.57c4.52-17.53,9.23-35,12.86-52.79,8.89-43.31,15.11-87.11,21-131,2.7-20.18,4.89-40.43,7.31-60.65.17-1.41.38-2.8.59-4.33h4c-.33,6-.68,11.85-1,17.75-1,19.81-2.51,39.61-2.83,59.43-.64,39.67-1,79.35-.71,119,.18,23.51,3,46.82,10.2,69.32C1234.89,568.85,1236.32,572.39,1238,577Z"/>
</svg>
