<svg xmlns="http://www.w3.org/2000/svg" width="28.892" height="37.553" viewBox="0 0 28.892 37.553"><path d="M15.349.457C7.629.457,0,5.6,0,13.932c0,5.3,2.979,8.306,4.785,8.306.745,0,1.174-2.077,1.174-2.663,0-.7-1.783-2.189-1.783-5.1,0-6.049,4.6-10.338,10.564-10.338,5.124,0,8.916,2.912,8.916,8.261,0,4-1.6,11.489-6.794,11.489a3.341,3.341,0,0,1-3.476-3.3c0-2.844,1.986-5.6,1.986-8.532,0-4.981-7.065-4.078-7.065,1.941a8.839,8.839,0,0,0,.722,3.815c-1.038,4.469-3.16,11.128-3.16,15.733,0,1.422.2,2.821.339,4.243.256.286.128.256.519.113,3.792-5.192,3.657-6.207,5.372-13,.925,1.761,3.318,2.709,5.214,2.709,7.99,0,11.579-7.787,11.579-14.807C28.892,5.333,22.436.457,15.349.457Z" transform="translate(0 -0.457)"/></svg>